<svg xmlns="http://www.w3.org/2000/svg" xml:space="preserve" id="Camada_1" x="0" y="0" style="enable-background:new 0 0 1179.6 649.9" version="1.1" viewBox="0 0 1179.6 649.9"><style>.st0{fill:#023c78}</style><path d="M1177.6 189.6v-38.5c0-93.4-25.5-151.9-173.5-151.1-104.8.2-173.3 30.4-173.3 144.2v189.3c0 94.8 60.7 146.3 164.4 147.2 110.7 1.4 184.3-24.2 184.3-147.2V277h-140.8v41.9c0 28.3-.8 79-34.1 79-25.4 0-37.7-21.6-37.7-43.8V126.4c0-19.1 2.2-39.1 29.4-41 0 0 6.7-.8 9.7 0 33 6.6 29.9 35.5 29.9 75.7v28.6l141.7-.1zm-690 291.1V155L550 480.7h88.7l57.4-330.1.3 330.1h109.2V0H637.2l-44.3 180.7L542.2 0H377.7v480.7h109.9zm-315.7 0c96.5 0 172.4-34.2 172.4-140.3V0H200.1v340.4c0 19.6-3.8 56.2-25.4 56.2-24 0-22.9-42.3-22.9-56.2V0H0v340.4c0 95.9 62.6 140.3 171.9 140.3zM114.8 546.3c-1.4 0-3.4.4-6.1.9-2.7.6-4.9 1.4-6.6 2.5-1.7 1.2-2.9 3.5-3.5 7.1-.6 3.6-1 8-1 13.2v46.3c0 5.9-1.2 11-3.7 15.4-2.5 4.3-5.7 7.9-9.7 10.7-3.9 2.7-8.1 4.6-12.5 5.8-4.4 1.2-8.6 1.8-12.5 1.8-6.4 0-12.1-.8-17.1-2.5-5-1.7-9.2-3.9-12.6-6.8-3.3-2.9-5.9-6.1-7.5-9.8-1.7-3.7-2.6-7.5-2.6-11.5v-62.9c0-1.8-.3-3.2-.9-4.4-.6-1.2-1.8-2.3-3.5-3.3-1.3-.7-2.9-1.3-4.9-1.7-2-.4-3.6-.7-4.9-.8v-5.4h44.2v5.4c-1.4 0-3.1.3-5.2.7-2.1.4-3.7.8-4.6 1.1-1.7.6-2.8 1.6-3.4 3-.6 1.4-.8 2.9-.8 4.6v58.8c0 2.8.3 5.8 1 9 .6 3.1 1.9 6 3.7 8.7 2 2.7 4.6 5 8 6.7 3.4 1.8 8 2.7 13.9 2.7 5.5 0 10.2-.9 13.9-2.7 3.7-1.7 6.7-4 8.8-6.9 2.1-2.7 3.5-5.5 4.4-8.5.8-2.9 1.3-5.9 1.3-8.9V571c0-5.5-.4-10.1-1.2-13.6-.8-3.5-2-5.8-3.5-6.9-1.8-1.3-4.2-2.2-7.2-2.9-3.1-.7-5.3-1.1-7-1.2V541h43.3v5.3zm117.7 0c-1.4 0-3.5.5-6.4 1.2-2.9.7-5 1.5-6.2 2.3-1.8 1.3-3 3.6-3.6 7.2-.6 3.5-1 8-1 13.5v77.9h-6.5l-64.4-87.1v54.8c0 6.1.4 10.8 1.2 14.1.8 3.3 2 5.7 3.5 7 1.1 1.1 3.6 2.1 7.2 3.1s6 1.5 7.1 1.5v5.4h-43.6v-5.4c1.4-.1 3.6-.6 6.8-1.5 3.2-.9 5.2-1.7 6-2.3 1.7-1.4 2.9-3.5 3.6-6.4.6-2.9 1-7.8 1-14.7v-52.3c0-2.3-.4-4.6-1.2-6.9-.8-2.3-1.9-4.1-3.2-5.3-1.8-1.6-4.2-3.1-7.3-4.2-3.1-1.2-5.6-1.8-7.5-1.9v-5.4h30.3l59.8 81v-50.5c0-6.2-.4-11-1.2-14.3-.8-3.3-1.9-5.5-3.4-6.6-1.4-.9-3.7-1.9-6.9-2.8-3.2-.9-5.6-1.4-7.2-1.5v-5.4h43.1v5.5zm55.2 100.9h-47.9v-5.4c1.4-.1 3.3-.3 5.9-.5 2.5-.2 4.3-.5 5.4-.9 1.7-.6 2.9-1.5 3.6-2.7.7-1.1 1.1-2.7 1.1-4.7v-77c0-1.7-.3-3.2-.8-4.4-.6-1.2-1.8-2.2-3.9-3-1.5-.6-3.4-1.2-5.7-1.7-2.3-.5-4.1-.8-5.6-.9v-5.4h47.9v5.4c-1.6 0-3.4.2-5.5.6-2.1.3-4 .7-5.6 1.2-1.9.6-3.2 1.6-3.8 2.9-.6 1.4-1 2.9-1 4.5v76.9c0 1.7.4 3.1 1.1 4.4.7 1.3 2 2.3 3.7 3 1 .4 2.7.8 5.1 1.3 2.4.5 4.4.7 6 .8v5.6zm111.6-100.9c-1.3 0-2.9.3-4.7.9-1.8.5-3.4 1.2-4.6 1.9-1.7 1-3.1 2.4-4.1 4.1-1 1.6-2 3.6-3 5.8-3.4 8-8.4 20.3-15.1 37.2-6.7 16.8-13.6 34.3-20.7 52.6h-6.3c-7.2-19.3-14.2-38-20.9-55.9-6.7-17.9-11.3-30-13.7-36.3-.6-1.6-1.4-2.9-2.4-4.1-1-1.2-2.3-2.3-4-3.3-1.4-.8-2.8-1.5-4.5-1.9-1.6-.4-3.2-.7-4.6-.8v-5.4h43.9v5.4c-3.7.2-6.9.6-9.5 1.1-2.6.5-3.9 1.5-3.9 2.9 0 .6.1 1.2.3 1.9.2.8.4 1.4.5 1.8 1.8 4.9 4.9 12.9 9 24 4.2 11.1 10.1 27 17.8 47.5 3.8-9.3 8.2-20.3 13.2-33s8.3-21.4 10-26.1c1.7-4.6 2.6-7.8 2.9-9.5.3-1.8.4-3.2.4-4.3 0-1.2-.5-2.1-1.5-2.9-1-.8-2.4-1.4-4.1-2-1.6-.5-3.3-.9-5-1.1-1.7-.2-3.4-.4-5.2-.6v-5.4H399l.3 5.5zm93.4 69.6-2 31.3h-88.2v-5.4c1.5-.1 3.5-.3 6-.6s4.1-.7 4.9-1c1.6-.8 2.7-1.7 3.4-2.9.6-1.2.9-2.7.9-4.5v-76.4c0-1.6-.3-3.1-.8-4.4-.6-1.3-1.7-2.3-3.5-3.1-1.4-.6-3.2-1.2-5.5-1.7s-4.1-.8-5.5-.9v-5.4h82.3v25.6H479c-1-3.8-3.1-7.8-6.5-12.1-3.3-4.2-6.4-6.6-9.4-7-1.6-.2-3.4-.3-5.5-.4-2.2-.1-4.6-.2-7.4-.2h-16.6V589h11.9c3.8 0 6.6-.4 8.4-1.1 1.8-.7 3.3-2 4.7-3.6 1.1-1.5 2-3.4 2.8-5.8.8-2.4 1.3-4.7 1.5-6.8h5.7v41.6h-5.7c-.2-2.4-.7-4.9-1.6-7.6-.9-2.7-1.8-4.6-2.7-5.8-1.5-2-3.3-3.2-5.3-3.8-2-.6-4.5-.9-7.8-.9h-11.9v31.9c0 3.2.2 5.7.7 7.5.5 1.8 1.3 3.2 2.6 4.2 1.3.9 3.1 1.5 5.3 1.8 2.3.3 5.5.4 9.6.4h6.5c2.7 0 5-.1 6.8-.3 1.9-.2 3.9-.6 5.9-1.1 2-.5 3.5-1.3 4.3-2.2 2.3-2.4 4.7-6 7.2-10.9s4.1-8.4 4.8-10.7l5.4.1zm114.5 31.3h-28.7c-6.3-10-12.1-18.5-17.2-25.8-5.1-7.2-10.7-14.7-16.7-22.4h-10.9v33.7c0 1.7.3 3.3.8 4.6.6 1.3 1.7 2.3 3.5 3 .9.4 2.5.7 4.7 1 2.2.3 4.1.5 5.7.5v5.4h-44.8v-5.4c1.2-.1 2.9-.3 5.2-.5 2.3-.3 3.8-.6 4.7-1 1.5-.6 2.6-1.6 3.3-2.8.7-1.3 1-2.8 1-4.8v-76.8c0-1.8-.3-3.3-.7-4.7-.5-1.4-1.7-2.4-3.5-3.1-1.2-.4-2.8-.9-4.8-1.2-2-.4-3.7-.6-5.1-.7v-5.4h49c4.5 0 8.7.5 12.6 1.4 4 .9 7.5 2.4 10.7 4.5 3.1 2 5.6 4.6 7.4 7.8 1.8 3.2 2.8 7.1 2.8 11.6 0 4.1-.6 7.7-1.9 10.9s-3.1 5.9-5.5 8.2c-2.3 2.2-5 4-8.1 5.6-3.2 1.6-6.6 2.9-10.4 4 5.2 6.9 9.6 12.8 13.1 17.5 3.5 4.7 7.7 10.5 12.8 17.3 2.2 3 4.2 5.2 6 6.6 1.8 1.4 3.5 2.6 5.3 3.5 1.3.6 2.9 1.1 4.9 1.5 1.9.3 3.6.5 4.9.6l-.1 5.4zM567.8 568c0-6.4-1.8-11.5-5.5-15.3-3.7-3.8-8.9-5.7-15.6-5.7H534v45.6h9.8c6.9 0 12.6-2.2 17.2-6.6 4.5-4.4 6.8-10.4 6.8-18zm109.7 30.4c2.3 2.5 3.9 5.3 5 8.2 1.1 3 1.6 6.4 1.6 10.4 0 9.4-3.5 17.1-10.4 23.2-6.9 6.1-15.6 9.2-25.8 9.2-4.8 0-9.5-.8-14.3-2.2-4.7-1.5-8.8-3.3-12.3-5.4l-3.2 5.5h-6l-1.1-36.4h6.1c1.3 4.5 2.7 8.5 4.4 12.2 1.7 3.6 3.9 7 6.6 10.1 2.6 2.9 5.6 5.3 9.1 7 3.5 1.7 7.5 2.6 12.1 2.6 3.4 0 6.5-.5 9-1.4 2.6-.9 4.7-2.2 6.3-3.8 1.6-1.6 2.8-3.6 3.5-5.8.8-2.2 1.2-4.8 1.2-7.7 0-4.2-1.2-8.2-3.6-11.8-2.4-3.7-6-6.5-10.7-8.3-3.3-1.3-7-2.7-11.2-4.3-4.2-1.6-7.8-3-10.8-4.5-6-2.7-10.7-6.2-14-10.6-3.3-4.4-5-10.1-5-17.1 0-4.1.8-7.8 2.5-11.3 1.6-3.5 4-6.6 7-9.4 2.9-2.6 6.3-4.6 10.3-6.1 3.9-1.5 8.1-2.2 12.4-2.2 4.9 0 9.3.8 13.2 2.3 3.9 1.5 7.4 3.3 10.6 5.3l3.1-5.1h6l.6 35.3h-6.1c-1.1-4-2.3-7.9-3.7-11.6-1.4-3.7-3.2-7-5.3-10-2.2-2.9-4.8-5.2-7.8-6.9-3.1-1.7-6.9-2.6-11.4-2.6-4.7 0-8.8 1.5-12.1 4.6-3.3 3-5 6.8-5 11.2 0 4.6 1.1 8.4 3.2 11.4 2.2 3 5.3 5.5 9.4 7.4 3.6 1.7 7.2 3.3 10.8 4.5 3.5 1.3 6.9 2.7 10.2 4.1 3 1.3 5.9 2.8 8.6 4.4 2.5 1.5 4.9 3.4 7 5.6zm66.4 48.8H696v-5.4c1.4-.1 3.3-.3 5.9-.5 2.5-.2 4.3-.5 5.4-.9 1.7-.6 2.9-1.5 3.6-2.7.7-1.1 1.1-2.7 1.1-4.7v-77c0-1.7-.3-3.2-.8-4.4-.6-1.2-1.8-2.2-3.9-3-1.5-.6-3.4-1.2-5.7-1.7-2.3-.5-4.1-.8-5.6-.9v-5.4h47.9v5.4c-1.6 0-3.4.2-5.5.6-2.2.3-4 .7-5.6 1.2-1.9.6-3.2 1.6-3.8 2.9-.6 1.4-1 2.9-1 4.5v76.9c0 1.7.3 3.1 1.1 4.4.7 1.3 2 2.3 3.7 3 1 .4 2.7.8 5.1 1.3 2.4.5 4.4.7 6 .8v5.6zM859 594.7c0 9-1.7 16.9-5.1 23.5-3.4 6.7-7.8 12.1-13.3 16.3-5.5 4.2-11.7 7.4-18.5 9.5-6.9 2.1-13.9 3.2-21.2 3.2h-44v-5.4c1.5 0 3.3-.1 5.7-.4 2.3-.3 3.9-.6 4.6-1 1.5-.6 2.6-1.6 3.3-2.8.7-1.3 1-2.8 1-4.6v-76.7c0-1.7-.3-3.2-.9-4.5-.6-1.4-1.7-2.4-3.5-3.2-1.6-.8-3.3-1.3-5.1-1.7-1.8-.3-3.4-.6-4.7-.7v-5.4h46.5c6.4 0 12.7 1 18.9 3 6.2 2 11.6 4.6 16.2 8 6.3 4.5 11.2 10.3 14.7 17.5 3.7 7.2 5.4 15.7 5.4 25.4zm-18.4 0c0-7.1-.9-13.6-2.8-19.4-1.9-5.8-4.7-10.8-8.3-15.1-3.4-4.1-7.7-7.3-12.7-9.6-5-2.4-10.6-3.5-16.7-3.5-2 0-4.3 0-6.9.1-2.5.1-4.5.2-5.7.2v81.7c0 4.5 1.3 7.7 4 9.4 2.6 1.7 6.7 2.6 12.2 2.6 6.3 0 11.8-1.1 16.6-3.4 4.7-2.3 8.6-5.4 11.5-9.4 3.1-4.2 5.3-9.1 6.8-14.6 1.3-5.4 2-11.8 2-19zm130.8 52.5h-44.2v-5.4c3.9-.3 7.1-.8 9.7-1.5 2.6-.7 3.8-1.7 3.8-2.8 0-.5 0-1-.1-1.6-.1-.7-.3-1.2-.5-1.7l-8.8-23.8H894c-1.4 3.5-2.5 6.5-3.4 9.1-.9 2.6-1.7 5-2.3 7.2-.6 2.1-1.1 3.9-1.4 5.2-.3 1.3-.4 2.5-.4 3.3 0 2 1.6 3.5 4.7 4.7 3.2 1.1 6.7 1.7 10.6 1.9v5.4h-40.1v-5.4c1.3-.1 2.9-.4 4.9-.9 1.9-.5 3.5-1.1 4.8-1.9 2-1.4 3.5-2.8 4.7-4.3 1.1-1.5 2.2-3.5 3.2-6.1 5.3-13.3 11.2-28.3 17.7-45 6.5-16.6 12.2-31.4 17.3-44.4h6l35.5 91.7c.8 2 1.6 3.5 2.5 4.7.9 1.2 2.3 2.3 4 3.5 1.1.7 2.6 1.3 4.5 1.8s3.4.7 4.7.8l-.1 5.5zm-42.8-43.4-16.1-41.3-15.9 41.3h32zm148.3-9.1c0 9-1.7 16.9-5.1 23.5-3.4 6.7-7.8 12.1-13.3 16.3-5.5 4.2-11.7 7.4-18.5 9.5-6.8 2.1-13.9 3.2-21.2 3.2h-44v-5.4c1.5 0 3.3-.1 5.7-.4 2.3-.3 3.9-.6 4.6-1 1.5-.6 2.6-1.6 3.2-2.8.7-1.3 1-2.8 1-4.6v-76.7c0-1.7-.3-3.2-.9-4.5-.6-1.4-1.7-2.4-3.5-3.2-1.6-.8-3.3-1.3-5.1-1.7-1.8-.3-3.4-.6-4.7-.7v-5.4h46.5c6.4 0 12.7 1 18.9 3 6.2 2 11.6 4.6 16.2 8 6.3 4.5 11.2 10.3 14.7 17.5 3.8 7.2 5.5 15.7 5.5 25.4zm-18.4 0c0-7.1-.9-13.6-2.8-19.4-1.9-5.8-4.7-10.8-8.3-15.1-3.4-4.1-7.7-7.3-12.7-9.6-5-2.4-10.6-3.5-16.7-3.5-2 0-4.3 0-6.9.1-2.5.1-4.5.2-5.7.2v81.7c0 4.5 1.3 7.7 4 9.4 2.6 1.7 6.7 2.6 12.2 2.6 6.3 0 11.9-1.1 16.6-3.4s8.6-5.4 11.5-9.4c3.1-4.2 5.3-9.1 6.7-14.6 1.4-5.4 2.1-11.8 2.1-19zm121 21.2-2 31.3h-88.2v-5.4c1.5-.1 3.5-.3 6-.6s4.2-.7 4.9-1c1.6-.8 2.7-1.7 3.3-2.9.6-1.2.9-2.7.9-4.5v-76.4c0-1.6-.3-3.1-.8-4.4-.6-1.3-1.7-2.3-3.5-3.1-1.4-.6-3.2-1.2-5.4-1.7-2.3-.5-4.1-.8-5.4-.9v-5.4h82.3v25.6h-5.7c-1-3.8-3.2-7.8-6.5-12.1-3.3-4.2-6.4-6.6-9.4-7-1.6-.2-3.4-.3-5.5-.4-2.2-.1-4.6-.2-7.3-.2h-16.7V589h11.9c3.8 0 6.6-.4 8.4-1.1 1.8-.7 3.3-2 4.7-3.6 1.1-1.5 2-3.4 2.8-5.8.8-2.4 1.3-4.7 1.5-6.8h5.7v41.6h-5.7c-.2-2.4-.7-4.9-1.6-7.6-.9-2.7-1.8-4.6-2.7-5.8-1.5-2-3.3-3.2-5.3-3.8-2-.6-4.6-.9-7.8-.9h-11.9v31.9c0 3.2.2 5.7.7 7.5.5 1.8 1.3 3.2 2.6 4.2 1.3.9 3.1 1.5 5.3 1.8 2.3.3 5.5.4 9.6.4h6.5c2.7 0 5-.1 6.8-.3 1.9-.2 3.9-.6 5.9-1.1 2-.5 3.5-1.3 4.3-2.2 2.3-2.4 4.7-6 7.2-10.9s4.2-8.4 4.8-10.7l5.3.1z" class="st0"/></svg>